<svg xmlns="http://www.w3.org/2000/svg" viewBox="0 0 13.5 13.5"><defs><style>.cls-1{fill:#fefefe;}.cls-2{fill:#0e0e0e;}.cls-3{fill:#1c1c1c;}.cls-4{fill:#ed596b;}.cls-5{fill:#ec3a4f;}.cls-6{fill:#f0f3f5;}</style></defs><title>Asset 4</title><g id="Layer_2" data-name="Layer 2"><g id="Layer_1-2" data-name="Layer 1"><path class="cls-1" d="M0,6V.11C0,0,0,0,.11,0H13.39c.09,0,.11,0,.11.11V13.39c0,.09,0,.11-.11.11H.11c-.09,0-.11,0-.11-.11V6.84c.1,0,.07.12.08.19A5.31,5.31,0,0,0,.36,8.14c0,.07,0,.13.07.2a.23.23,0,0,0,.22.18.57.57,0,0,1,.22.37.32.32,0,0,0,0,.39l.35.51c.1.15.09.16-.08.22s-.38.12-.56.2a.47.47,0,0,0-.24.2.46.46,0,0,0,.24.66,7,7,0,0,0,.77.26.37.37,0,0,1,.27.28c.08.24.17.48.25.73a.46.46,0,0,0,.44.33.43.43,0,0,0,.44-.3A6.5,6.5,0,0,0,3,11.75c.06-.18.1-.19.25-.09a11,11,0,0,0,2.3,1.16.45.45,0,0,0,.28,0A11.65,11.65,0,0,0,8,11.75a8.81,8.81,0,0,0,1.54-1.24,6.37,6.37,0,0,0,1.73-3.25,4.9,4.9,0,0,0,.06-1.08.27.27,0,0,1,.16-.27,2.87,2.87,0,0,0,.43-.28.26.26,0,0,0,.14-.3c.05-.15.18-.21.29-.29s.25,0,.35-.13a3.23,3.23,0,0,0,.72-1.5,2.09,2.09,0,0,0-.11-1.26,1.29,1.29,0,0,0-1.17-.82A1.76,1.76,0,0,0,10.58,2c-.16.2-.16.19-.33,0a1.76,1.76,0,0,0-1.58-.66A1.4,1.4,0,0,0,7.43,2.62a2.49,2.49,0,0,0,.05.9.15.15,0,0,1-.1.2A3.64,3.64,0,0,0,5.81,5.08l0,0c-.09.12-.13.12-.21,0a3.63,3.63,0,0,0-.85-.94,3.29,3.29,0,0,0-1.83-.73,2.67,2.67,0,0,0-1.63.38A2.49,2.49,0,0,0,.16,5.36c0,.17-.06.34-.09.5S.07,6,0,6Z" transform="translate(0)"/><path d="M12,5.32c.06.15.05.21-.09.31a3.84,3.84,0,0,1-.54.35c-.05,0-.07,0-.07.12a6,6,0,0,1-1.89,4.51,10.06,10.06,0,0,1-3.51,2.2.7.7,0,0,1-.53,0,11.72,11.72,0,0,1-2.25-1.17l-.08,0-.26.77a.5.5,0,0,1-.51.34.48.48,0,0,1-.44-.35c-.1-.27-.19-.54-.28-.81a.23.23,0,0,0-.16-.16l-.76-.26c-.27-.09-.41-.25-.4-.49a.5.5,0,0,1,.39-.49Q.93,10,1.2,10c.09,0,.09-.06,0-.13a6,6,0,0,1-.41-.62c-.09-.15-.08-.2,0-.33A.19.19,0,0,1,1.16,9a5.07,5.07,0,0,0,.36.54s0,.06.08.08c.08-.23.15-.45.23-.67a.58.58,0,0,1,.38-.37.53.53,0,0,1,.64.37c.09.25.18.51.26.76a.34.34,0,0,0,.18.19c.26.09.53.17.79.27a.51.51,0,0,1,.37.46.52.52,0,0,1-.27.51c-.22.09-.45.16-.69.25a9.36,9.36,0,0,0,1.8.94.71.71,0,0,0,.72,0A10.85,10.85,0,0,0,8.4,11,6.9,6.9,0,0,0,10.15,9a5.41,5.41,0,0,0,.76-2.27c0-.13,0-.27,0-.4s0-.07-.08,0a2,2,0,0,0-.22.09.39.39,0,0,1-.35,0,5.34,5.34,0,0,1-2-1.27,3.47,3.47,0,0,1-.62-.89c-.09-.18-.1-.19-.28-.09a3.5,3.5,0,0,0-1.18,1,2.73,2.73,0,0,0-.27.47.49.49,0,0,1-.11.14c-.13.11-.28.07-.37-.1A4.69,4.69,0,0,0,5,5,3.08,3.08,0,0,0,3.51,4a2.38,2.38,0,0,0-2.19.3A2,2,0,0,0,.56,5.41,3.9,3.9,0,0,0,.5,7.11a4.9,4.9,0,0,0,.26,1,.65.65,0,0,1,.06.23.16.16,0,0,1-.14.2c-.16,0-.22,0-.28-.17A6.06,6.06,0,0,1,0,6.92s0-.06,0-.08V6.63c0-.06,0-.12,0-.18s0-.15,0-.21V6a3.86,3.86,0,0,0,.1-.49A2.54,2.54,0,0,1,2.88,3.42a3.49,3.49,0,0,1,2.7,1.65,1,1,0,0,1,.08.14s0,0,.06-.06A3.78,3.78,0,0,1,7.39,3.68c.1,0,.06-.1.05-.16a2.4,2.4,0,0,1,0-1.19,1.46,1.46,0,0,1,1.9-1,1.9,1.9,0,0,1,1,.7c.05.08.07.08.13,0a1.85,1.85,0,0,1,1.57-.78,1.39,1.39,0,0,1,1.36,1.17,2.84,2.84,0,0,1-.52,2.2,3.59,3.59,0,0,1-.25.33c-.11.13-.17.14-.33.06s-.1-.14-.07-.22a.52.52,0,0,1,.12-.18A2.76,2.76,0,0,0,13,3.14a1.55,1.55,0,0,0-.11-.85.93.93,0,0,0-.84-.57,1.46,1.46,0,0,0-1.38.81s0,.09-.07.12a.23.23,0,0,1-.41,0,2.08,2.08,0,0,0-.47-.59,1.41,1.41,0,0,0-.65-.31,1,1,0,0,0-1.27.84,2.42,2.42,0,0,0,.3,1.56A3.66,3.66,0,0,0,9.64,5.6a2.74,2.74,0,0,0,.42.21c.44.2.28.19.75,0a4.11,4.11,0,0,0,.86-.5.57.57,0,0,1,.13-.08A.19.19,0,0,1,12,5.32Z" transform="translate(0)"/><path class="cls-2" d="M0,6.24c.06.06,0,.14,0,.21H0Z" transform="translate(0)"/><path class="cls-3" d="M0,6.45H0c0,.06,0,.13,0,.18Z" transform="translate(0)"/><path class="cls-4" d="M12,5.32c-.13-.11-.18-.11-.32,0a5.51,5.51,0,0,1-1.14.63.33.33,0,0,1-.32,0l-.21-.1a2.18,2.18,0,0,1-.46-.45,13.54,13.54,0,0,1-.88-1.12,1.88,1.88,0,0,1-.37-1.08A1.83,1.83,0,0,1,8.93,1.8a.4.4,0,0,1,.17-.09,1.52,1.52,0,0,1,1,.71,1.14,1.14,0,0,1,.1.19.2.2,0,0,0,.38,0,1.77,1.77,0,0,1,.61-.69,1.32,1.32,0,0,1,1.09-.18,1,1,0,0,1,.74.88,2.49,2.49,0,0,1-.49,1.84,1.93,1.93,0,0,1-.22.28.23.23,0,0,0,0,.32Z" transform="translate(0)"/><path class="cls-5" d="M.68,8.54c.13-.1.15-.16.08-.33a4.77,4.77,0,0,1-.36-2A2.61,2.61,0,0,1,1,4.53a2.16,2.16,0,0,1,1.85-.72,2.28,2.28,0,0,1,.69.13c-.11.07-.24.08-.35.15a2.45,2.45,0,0,0-1,1,3.54,3.54,0,0,0-.07,3.26c0,.06.08.12.06.19A.56.56,0,0,0,1.85,9l-.25.71c-.17-.22-.31-.44-.45-.66S1,8.84.85,8.89Z" transform="translate(0)"/><path d="M3.28,1.52A.89.89,0,0,1,3.81.66,1,1,0,0,1,5,.92c.07.07.1.07.18,0a1,1,0,0,1,1-.3.91.91,0,0,1,.65,1,1.94,1.94,0,0,1-.76,1.48,3,3,0,0,1-.93.52A.2.2,0,0,1,5,3.6,2.67,2.67,0,0,1,3.46,2.34,1.71,1.71,0,0,1,3.28,1.52Z" transform="translate(0)"/><path class="cls-4" d="M2.21,8.57a3.51,3.51,0,0,1-.44-2.08,3.47,3.47,0,0,1,.72-1.85A2.07,2.07,0,0,1,3.34,4a1.25,1.25,0,0,1,.19,0,3,3,0,0,1,1.13.65,3.79,3.79,0,0,1,.8,1.07c0,.09.09.18.22.18s.16-.09.21-.18a3.38,3.38,0,0,1,1.6-1.59s.1-.07.14,0A4.05,4.05,0,0,0,9.41,6a7.53,7.53,0,0,0,.86.4.37.37,0,0,0,.31,0l.13-.06c.25-.09.25-.09.24.16a5.34,5.34,0,0,1-1,2.94,8.12,8.12,0,0,1-3,2.53c-.34.17-.69.32-1,.46a.43.43,0,0,1-.41,0,1.63,1.63,0,0,0-.19-.09,8.33,8.33,0,0,1-.83-.85l-.2-.21c0-.06-.1-.1-.1-.18A.51.51,0,0,0,4,10.14l-.77-.26a.24.24,0,0,1-.14-.14C3,9.48,2.92,9.22,2.83,9A.51.51,0,0,0,2.21,8.57Z" transform="translate(0)"/><path class="cls-6" d="M4,10.64c0,.07-.06.09-.12.11L3.12,11a.57.57,0,0,0-.39.39c-.09.27-.18.53-.28.79,0,.06,0,.11-.1.12s-.1-.06-.12-.12c-.09-.27-.19-.53-.28-.8A.54.54,0,0,0,1.59,11l-.81-.27c-.05,0-.12,0-.12-.12s.06-.1.12-.12l.78-.26a.58.58,0,0,0,.4-.4c.08-.26.18-.52.27-.78,0-.06,0-.12.11-.12s.1.06.12.12l.27.79a.54.54,0,0,0,.38.38l.79.27C4,10.54,4,10.56,4,10.64Z" transform="translate(0)"/><path class="cls-5" d="M9.1,1.71a1.66,1.66,0,0,0-.7,1.15,1.79,1.79,0,0,0,.29,1.31,9.64,9.64,0,0,0,1,1.28c.11.14.24.25.35.39A3.72,3.72,0,0,1,7.89,3.66a2.05,2.05,0,0,1,0-1.25A1,1,0,0,1,9.1,1.71Z" transform="translate(0)"/><path class="cls-5" d="M4.16,11.08c.18.23.39.43.58.65s.39.38.55.59a9.63,9.63,0,0,1-1.88-1Z" transform="translate(0)"/><path class="cls-4" d="M4.32,1a.69.69,0,0,1,.52.4c0,.08.1.17.22.16s.16-.08.21-.17a.75.75,0,0,1,.3-.31.54.54,0,0,1,.87.47,1.43,1.43,0,0,1-.42,1,2.66,2.66,0,0,1-.89.59.17.17,0,0,1-.14,0A2.42,2.42,0,0,1,4.63,3,3.1,3.1,0,0,1,4,2.18a1,1,0,0,1,.09-1.1A.18.18,0,0,1,4.32,1Z" transform="translate(0)"/><path class="cls-5" d="M4.32,1a.2.2,0,0,0-.21.11,1.05,1.05,0,0,0,0,1.24c.15.22.34.41.49.64a1.73,1.73,0,0,1-1-1.32.75.75,0,0,1,0-.33A.47.47,0,0,1,4.32,1Z" transform="translate(0)"/></g></g></svg>