<?xml version="1.0" encoding="utf-8"?>
<!-- Generator: Adobe Illustrator 24.0.1, SVG Export Plug-In . SVG Version: 6.00 Build 0)  -->
<svg version="1.1" id="Layer_1" xmlns="http://www.w3.org/2000/svg" xmlns:xlink="http://www.w3.org/1999/xlink" x="0px" y="0px"
	 viewBox="0 0 48.75 48.75" style="enable-background:new 0 0 48.75 48.75;" xml:space="preserve">
<style type="text/css">
	.st0{fill:#FEFEFE;}
</style>
<title>Asset 10</title>
<g id="Layer_2_1_">
	<g id="Layer_1-2">
		<path d="M7.18,0.03h12.44c0.17,0.04,0.34,0.04,0.51,0c6.93,0.06,13.82,0.09,20.82,0.05c3.52,0.1,6.58,2.45,7.59,5.83
			c0.12,0.44,0.08,0.91,0.19,1.35v1.33c-0.07,0.18-0.08,0.37-0.05,0.56c0,10.57,0,21.15,0,31.72c-0.11,3.64-2.61,6.78-6.14,7.69
			c-0.53,0.11-1.06,0.17-1.6,0.16c-3.79,0-7.57,0-11.35,0c-7.22-0.08-14.44,0-21.66,0c-1.94,0-3.8-0.74-5.22-2.06
			c-0.94-0.82-1.67-1.85-2.14-3c-0.36-0.84-0.55-1.75-0.54-2.67c0-7.3,0-14.6,0-21.9c0-3.77,0-7.53,0-11.3
			c0.02-1.82,0.7-3.58,1.92-4.93C2.82,1.81,3.93,0.99,5.2,0.48C5.84,0.26,6.5,0.1,7.18,0.03z"/>
		<path class="st0" d="M31.45,23.76c0.51,0.13,1,0.3,1.48,0.51c1.5,0.69,2.65,1.97,3.18,3.53c0.63,1.72,0.74,3.58,0.29,5.36
			c-0.6,2.39-2.42,4.3-4.79,5c-1.57,0.56-3.22,0.85-4.88,0.84c-2.21,0-4.43,0.09-6.64,0s-4.29,0-6.44-0.06
			c-0.36,0-0.39-0.14-0.39-0.44c0-2.9,0-5.79,0-8.69c0-6.22,0-12.44,0-18.66c0-0.4,0.07-0.52,0.51-0.52c4.35,0,8.7,0,13.05,0
			c0.98-0.05,1.97,0.05,2.92,0.28c1.34,0.31,2.6,0.92,3.68,1.77c1.59,1.46,2.34,3.62,2,5.75c-0.17,2.27-1.59,4.25-3.69,5.14
			C31.66,23.58,31.53,23.59,31.45,23.76z"/>
		<path d="M23.09,34.92c-1.47,0-2.94,0-4.41,0c-0.34,0-0.46-0.06-0.46-0.43c0-2.68,0-5.35,0-8c0-0.33,0.09-0.42,0.42-0.42
			c2.88,0,5.76,0,8.64,0c0.41,0,0.83,0.05,1.23,0.13c1.81,0.35,3.13,1.91,3.16,3.75c0.16,1.24-0.17,2.49-0.93,3.48
			c-0.84,0.96-2.06,1.5-3.33,1.47c-1.43,0-2.88,0-4.32,0L23.09,34.92z"/>
		<path d="M22.77,14.67h3.9c0.66,0,1.32,0.12,1.94,0.37c0.83,0.3,1.46,0.99,1.68,1.85c0.26,0.87,0.3,1.79,0.12,2.68
			c-0.37,1.71-1.89,2.91-3.63,2.89c-2.39,0.05-4.78,0-7.17,0c-0.36,0-0.72,0-1.09,0s-0.29-0.08-0.29-0.31c0-2.4,0-4.8,0-7.21
			c0-0.31,0.15-0.31,0.38-0.31h4.17L22.77,14.67z"/>
	</g>
</g>
</svg>
