<?xml version="1.0" encoding="utf-8"?>
<!-- Generator: Adobe Illustrator 24.0.1, SVG Export Plug-In . SVG Version: 6.00 Build 0)  -->
<svg version="1.1" id="Layer_1" xmlns="http://www.w3.org/2000/svg" xmlns:xlink="http://www.w3.org/1999/xlink" x="0px" y="0px"
	 viewBox="0 0 48.75 48.75" style="enable-background:new 0 0 48.75 48.75;" xml:space="preserve">
<style type="text/css">
	.st0{fill:#FEFEFE;}
</style>
<title>Asset 6</title>
<g id="Layer_2_1_">
	<g id="Layer_1-2">
		<path d="M24.52,48.75h-0.29c-1.25-0.26-2.48-0.63-3.67-1.09c-3.95-1.32-7.92-2.59-11.86-3.92c-0.78-0.26-1.57-0.5-2.35-0.75
			C6,42.91,5.74,42.61,5.71,42.25c-0.08-0.58-0.09-1.17-0.13-1.75c-0.19-2.67-0.38-5.33-0.56-8l-0.42-6c-0.14-2-0.29-4-0.43-6
			C4.05,19.08,4,17.53,3.84,16l-0.33-4.73l-0.33-4.6C3.08,5.12,3,3.57,2.84,2c0-0.47,0-0.95-0.09-1.42s0-0.55,0.51-0.55h42
			c0.61,0,0.7,0.07,0.64,0.67c-0.17,2-0.28,3.91-0.43,5.87c-0.12,1.56-0.21,3.12-0.32,4.68s-0.22,3.09-0.34,4.64s-0.21,3-0.32,4.54
			s-0.22,3.16-0.34,4.73c-0.08,1.09-0.15,2.18-0.23,3.27c-0.11,1.61-0.23,3.21-0.34,4.82s-0.22,2.94-0.32,4.4s-0.23,3-0.3,4.5
			c-0.01,0.4-0.29,0.73-0.68,0.81c-1.1,0.36-2.19,0.74-3.29,1.09c-4.36,1.42-8.72,2.86-13.08,4.31C25.47,48.54,25,48.64,24.52,48.75
			z"/>
		<path class="st0" d="M24.38,7.23h13.29c0.38,0,0.5,0,0.46,0.47c-0.14,1.6-0.24,3.19-0.33,4.79c0,0.35-0.13,0.46-0.5,0.46H17.17
			c-0.43,0-0.55,0.08-0.51,0.53c0.18,2.05,0.31,4.11,0.45,6.16c0,0.63,0,0.64,0.64,0.64h19c0.42,0,0.52,0.08,0.49,0.51
			c-0.27,3.44-0.51,6.88-0.75,10.32c-0.15,2-0.3,4-0.43,6c0.01,0.24-0.15,0.45-0.38,0.49c-3.68,1.22-7.35,2.45-11,3.69
			c-0.19,0.07-0.41,0.07-0.6,0L13,37.51c-0.2-0.04-0.34-0.22-0.33-0.42c-0.11-1.66-0.23-3.31-0.36-5c0-0.34,0-0.49,0.42-0.48
			c1.62,0,3.23,0,4.85,0c0.3,0,0.43,0,0.45,0.39c0.05,1.18,0.07,1.18,1.18,1.55L24,35.19c0.21,0.08,0.43,0.08,0.64,0
			c1.87-0.63,3.75-1.24,5.62-1.85c0.22-0.05,0.37-0.25,0.35-0.47c0.14-2.13,0.28-4.26,0.46-6.39c0-0.49-0.11-0.54-0.54-0.54H12.46
			c-0.65,0-0.63,0-0.68-0.65c-0.23-3.4-0.48-6.79-0.72-10.19c-0.17-2.49-0.33-5-0.52-7.48c0-0.34,0.07-0.41,0.4-0.41L24.38,7.23z"/>
	</g>
</g>
</svg>
