<svg xmlns="http://www.w3.org/2000/svg" viewBox="0 0 27.42 56"><defs><style>.cls-1{fill:#020202;}</style></defs><title>Asset 2</title><g id="Layer_2" data-name="Layer 2"><g id="Layer_1-2" data-name="Layer 1"><g id="Layer_2-2" data-name="Layer 2"><g id="Layer_1-2-2" data-name="Layer 1-2"><path class="cls-1" d="M26.15,0c.31.21.6.43.89.67.51.46.5.7,0,1.15L20.87,7.77a1.62,1.62,0,0,0-.45.69c-.32,1.22-.65,2.43-1,3.64-.13.43,0,.47.41.5a35.24,35.24,0,0,1,6.06.76,5.53,5.53,0,0,1,.9.28c.27.11.6.22.59.53s-.32.39-.58.5a10.77,10.77,0,0,1-2.76.64A88,88,0,0,1,5,15.52a17.49,17.49,0,0,1-4.08-.75c-.37-.11-.88-.19-.88-.62s.51-.52.88-.63a23,23,0,0,1,4.82-.85,97.94,97.94,0,0,1,10.71-.32c.44,0,.58-.11.66-.47.38-1.49.79-3,1.18-4.45a1.39,1.39,0,0,1,.39-.66l7-6.77Z"/><path class="cls-1" d="M22,32.24c.07-.32.3-.45.48-.61a12.07,12.07,0,0,0,1.59-1.69,2,2,0,0,0,.45-1.16.87.87,0,0,0-.84-.92.81.81,0,0,0-.22,0,3.4,3.4,0,0,0-1.58.58c-.27.15-.51.33-.78.51-.1-.13,0-.27,0-.41a.48.48,0,0,0-.4-.42.42.42,0,0,0-.47.26c-.17.43-.34.85-.49,1.29a3.85,3.85,0,0,1-2.88,2.37c-.34.1-.44,0-.4-.31a7,7,0,0,1,.67-1.8c.65-1.49,1.34-3,2-4.43a3.2,3.2,0,0,0,.32-1.22c0-.25.06-.55-.27-.65s-.53.17-.66.4a7.59,7.59,0,0,0-.66,1.22,48.71,48.71,0,0,0-2.39,6,1.63,1.63,0,0,1-1.34,1c-.5,0-.54-.3-.51-.61A4,4,0,0,1,14,30.38c.26-.61.54-1.22.78-1.83.07-.19.17-.48-.07-.61s-.48.11-.63.29A9.13,9.13,0,0,0,13,29.94,5.92,5.92,0,0,1,11.13,32c-.2.16-.46.36-.75.18s-.15-.43-.1-.65a9,9,0,0,1,.85-2.09c.15-.3.3-.6.42-.91s.12-.48-.17-.62-.42.11-.56.27A8,8,0,0,0,9.34,31a3.66,3.66,0,0,0-.23,1.27A1,1,0,0,0,10,33.45a1.36,1.36,0,0,0,.63-.06A3.32,3.32,0,0,0,12.51,32c.07.5.09,1,.64,1.15a1.94,1.94,0,0,0,1.64-.27c.28-.15.44-.23.68.1s.77.28,1.25.17a8.47,8.47,0,0,0,1.87-1,18,18,0,0,1-1,2.31,8.29,8.29,0,0,0-.66,1.57c-.07.27-.21.64.19.79s.53-.18.7-.4a9.2,9.2,0,0,0,1-1.78,35.68,35.68,0,0,1,1.76-3.63,4,4,0,0,1,2.12-1.91c.18-.07.41-.22.58,0s-.07.39-.21.54a17.49,17.49,0,0,0-1.77,1.78c-.4.53-.85,1.15-.35,1.73s1.25.3,1.87.11a8.69,8.69,0,0,0,2.22-1.21c-.11,1-.22,1.89-.32,2.79-.27,2.17-.54,4.34-.79,6.51a1,1,0,0,1-.69,1,19.18,19.18,0,0,1-5.2,1.25,37.76,37.76,0,0,1-11.62-.38,12.73,12.73,0,0,1-3.11-1.13.57.57,0,0,1-.39-.49c-.27-2.59-.56-5.18-.84-7.77a.65.65,0,0,1,0-.51c1.78.6,2.84-.51,4-1.53a5.85,5.85,0,0,1-.39,1.46,5.66,5.66,0,0,0-.25,1.29c0,.2,0,.42.27.5a.5.5,0,0,0,.59-.27,1.07,1.07,0,0,0,.2-.38c.71-2.08,1.46-4.16,2-6.27.1-.37.22-.84-.29-1s-.69.37-.78.71a6.42,6.42,0,0,1-2.62,3.72,3.25,3.25,0,0,1-1,.53.77.77,0,0,1-1-.33c0-.05,0-.11-.05-.15a2.7,2.7,0,0,1,0-1.73A13.6,13.6,0,0,1,5.46,25a2.65,2.65,0,0,1,.79-.66c1-.59,1.68-.6,2.21.44a2.35,2.35,0,0,0,.23.32.59.59,0,0,0,.76.29l.12-.06c.33-.14.31-.39.27-.64a2.75,2.75,0,0,0-3.29-1.82A4.83,4.83,0,0,0,4,24.73,15,15,0,0,0,2,28.39c-.07.19-.16.37-.31.71L.1,15.37c3.76,1.15,7.72,1.15,11.6,1.24A84.5,84.5,0,0,0,22,16.29a18.75,18.75,0,0,0,5.15-1c-.11,1-.21,1.84-.31,2.73-.42,3.51-.85,7-1.26,10.53l-.11.82a1.86,1.86,0,0,1-.58,1.53A6.71,6.71,0,0,1,22,32.24Z"/><path class="cls-1" d="M3.85,43a37.6,37.6,0,0,0,19.53-.06c-.47.74-.9,1.42-1.35,2.1a1.33,1.33,0,0,0-.25.77c-.17,2.73-.37,5.45-.5,8.18a1.25,1.25,0,0,1-.93,1.15,13.18,13.18,0,0,1-3.35.72,28.17,28.17,0,0,1-8.79-.38l-.57-.15c-1.25-.39-1.34-.55-1.43-1.71l-.56-7.67a1,1,0,0,0-.14-.48C5,44.66,4.46,43.86,3.85,43Z"/></g></g></g></g></svg>