<svg xmlns="http://www.w3.org/2000/svg" viewBox="0 0 466.63 466.63"><defs><style>.cls-1{fill:#fefefe;opacity:0;}.cls-2{fill:#f88c96;}.cls-3{fill:#dc3e46;}.cls-4{fill:#fefcfc;}.cls-5{fill:#fefcfd;}.cls-6{fill:#fefbfb;}.cls-7{fill:#fdfbfb;}.cls-8{fill:#fdfafb;}</style></defs><title>Asset 13</title><g id="Layer_2" data-name="Layer 2"><g id="Layer_1-2" data-name="Layer 1"><path class="cls-1" d="M.09,69.21C.09,47.39.17,25.57,0,3.75,0,.69.53,0,3.7,0Q179.33.17,355,.09q54.08,0,108.15,0c2.18,0,3.5-.27,3.49,3q-.18,231.38-.11,462.74a7.58,7.58,0,0,1-.08.82H233.76a14.27,14.27,0,0,1,2-1.79q14.46-9,28.13-19.19c25.49-18.91,49.58-39.31,68.89-64.81,15.22-20.09,24.07-41.94,19.2-67.7-1.09-5.77-2.31-11.52-3.47-17.28A410.94,410.94,0,0,0,390.7,266c22.25-17.68,43.22-36.69,59.13-60.55,9.72-14.58,16.85-30.17,15.68-48.32-1-15.18-4.15-30-11.1-43.51C444,93.42,428.89,80.25,404.3,81.86a60.6,60.6,0,0,0-38.23,16.43c-6.58,6-11.73,13.32-17.37,20.17-2.58,3.13-4.64,3.2-7.11,0-2.74-3.57-5.74-6.93-8.51-10.48-13.33-17.06-30.23-26.58-52.45-26.12-15.46.32-27.22,7.11-36.4,18.89-10.51,13.48-15.52,29.11-17.86,45.92-2.3,16.54-.29,32.08,7.62,46.89,10.64,19.92,25.6,36.29,41.85,51.63,2,1.85,4.46,3.12,5.65,5.72-1.2,1.56-3,1.81-4.74,2.34a58.55,58.55,0,0,0-24.64,15.35,173.23,173.23,0,0,0-14.91,17.57c-3.16,4.21-5.37,4.26-8.52.25-2.61-3.32-5.3-6.56-7.93-9.85-11.1-13.9-24.62-23.17-42.9-25.7-19.33-2.69-34.47,3.8-46.11,18.5-12.87,16.23-17.55,35.64-18.86,55.92-1.08,16.78,4.86,31.65,13.7,45.44,10.81,16.85,24.19,31.45,39.1,44.83A487.65,487.65,0,0,0,219,457.13c4.41,3,9.55,5.08,12.93,9.5H.09V89.21a5,5,0,0,1,1.74,3.08C3.51,102.41,8,111.41,13.18,120.06c12.07,20,28.05,36.61,45.58,51.75a485.74,485.74,0,0,0,58.65,43.56c2.43,1.53,3.92,1.53,6.3,0a535.28,535.28,0,0,0,57.09-42.54c16.55-14.25,31.66-29.72,44-47.81,7.68-11.3,14.08-23.42,15.19-37.17,1.68-21-2.34-41.09-13-59.47C218.33,13.55,206.06,3,188.58,1.28,169.91-.52,153.41,5.5,139.83,18.9c-6.06,6-11.06,12.84-16.49,19.35-2,2.36-3.47,2.9-5.52.13s-4.62-5.6-6.88-8.44C102.55,19.39,93.3,9.8,80.22,5.22c-17-6-33.85-7-49.49,3.89C17.48,18.38,10.41,31.94,5.4,46.9,3,54.2,2.35,61.89.09,69.21Z"/><path class="cls-2" d="M.09,69.21C2.35,61.89,3,54.2,5.4,46.9c5-15,12.08-28.52,25.33-37.79C46.37-1.82,63.22-.74,80.22,5.22,93.3,9.8,102.55,19.39,110.94,29.94c2.26,2.84,4.72,5.53,6.88,8.44s3.55,2.23,5.52-.13c5.43-6.51,10.43-13.36,16.49-19.35C153.41,5.5,169.91-.52,188.58,1.28,206.06,3,218.33,13.55,226.93,28.36c10.68,18.38,14.7,38.49,13,59.47-1.11,13.75-7.51,25.87-15.19,37.17-12.3,18.09-27.41,33.56-44,47.81a535.28,535.28,0,0,1-57.09,42.54c-2.38,1.55-3.87,1.55-6.3,0a485.74,485.74,0,0,1-58.65-43.56C41.23,156.67,25.25,140,13.18,120.06,8,111.41,3.51,102.41,1.83,92.29A5,5,0,0,0,.09,89.21Zm208.59,7.57c1.28-3.47-1.23-4.06-4.92-3.78a47.55,47.55,0,0,1-7.26,0c-2.64-.2-3.62.65-3.93,3.45a64.75,64.75,0,0,1-9,26.39c-12.82,21.41-30.65,38.08-50.21,53.1-9.33,7.17-9.32,7-2.86,16.79,1.79,2.7,3,3.35,5.92,1.23,20.18-14.69,38.58-31.25,53.39-51.44C199.57,109.2,207,94.76,208.68,76.78Zm-8.07-27.6a40.24,40.24,0,0,1,4.53,0c3.46.4,3.91-1,3.35-4.17a23.6,23.6,0,0,0-21.05-19.92c-2-.2-2.82.21-2.79,2.25,0,3.78-.75,7.76.2,11.28,1.14,4.25,8.07,4.28,8.38,9.91.05,1,1.84.56,2.85.61C197.59,49.23,199.1,49.18,200.61,49.18Z"/><path class="cls-2" d="M231.94,466.63c-3.38-4.42-8.52-6.53-12.93-9.5a487.65,487.65,0,0,1-53.33-41.59c-14.91-13.38-28.29-28-39.1-44.83-8.84-13.79-14.78-28.66-13.7-45.44,1.31-20.28,6-39.69,18.86-55.92,11.64-14.7,26.78-21.19,46.11-18.5,18.28,2.53,31.8,11.8,42.9,25.7,2.63,3.29,5.32,6.53,7.93,9.85,3.15,4,5.36,4,8.52-.25a173.23,173.23,0,0,1,14.91-17.57,58.55,58.55,0,0,1,24.64-15.35c1.7-.53,3.54-.78,4.74-2.34a16.66,16.66,0,0,0,4.93-.19,58.18,58.18,0,0,1,19.35.08c14.75,2.91,24.89,12.07,32.79,24.35,4.2,6.52,6.55,13.84,9.9,20.73,1.16,5.76,2.38,11.51,3.47,17.28,4.87,25.76-4,47.61-19.2,67.7-19.31,25.5-43.4,45.9-68.89,64.81q-13.68,10.16-28.13,19.19a14.27,14.27,0,0,0-2,1.79ZM313,322.07c-1.67,0-3.34.1-5,0-2.32-.17-3.18.72-3.26,3.09-.32,9.31-3.72,17.7-8.29,25.62-12.63,21.91-31,38.49-50.47,54-3,2.42-8.48,4.16-8.59,7.3-.11,3.34,4,6.74,6,10.29,1.48,2.66,2.86,2.35,5,.82,18-13.17,34.75-27.75,48.77-45.18,11.17-13.89,20.44-28.85,23.26-47C321.77,322.05,321.91,322.07,313,322.07Zm.05-23.83h2.71c5.75,0,6.28-.67,4.75-6.26-2.63-9.61-8.89-15.39-18.57-17.71-3.64-.87-5.53-.21-5.22,4a58,58,0,0,1,0,7.69c-.14,2.51.16,4.17,3.29,4.66a5.69,5.69,0,0,1,4.71,5c.34,2.48,1.85,2.78,3.84,2.71C310,298.19,311.53,298.24,313,298.24Z"/><path class="cls-3" d="M348.46,295.86c-3.35-6.89-5.7-14.21-9.9-20.73-7.9-12.28-18-21.44-32.79-24.35a58.18,58.18,0,0,0-19.35-.08,16.66,16.66,0,0,1-4.93.19c-1.19-2.6-3.7-3.87-5.65-5.72-16.25-15.34-31.21-31.71-41.85-51.63-7.91-14.81-9.92-30.35-7.62-46.89,2.34-16.81,7.35-32.44,17.86-45.92,9.18-11.78,20.94-18.57,36.4-18.89,22.22-.46,39.12,9.06,52.45,26.12,2.77,3.55,5.77,6.91,8.51,10.48,2.47,3.22,4.53,3.15,7.11,0,5.64-6.85,10.79-14.13,17.37-20.17A60.6,60.6,0,0,1,404.3,81.86c24.59-1.61,39.74,11.56,50.11,31.76,6.95,13.54,10.12,28.33,11.1,43.51,1.17,18.15-6,33.74-15.68,48.32C433.92,229.31,413,248.32,390.7,266A410.94,410.94,0,0,1,348.46,295.86Zm77.08-142.23c-1.82,0-3.64.08-5.45,0s-2.63.42-2.78,2.48c-1,13.11-6.63,24.41-14,34.94-12.31,17.53-27.92,31.8-44.65,45-3.17,2.49-8.82,4.26-8.86,7.62-.05,3.51,4.16,7,6.35,10.66,1.13,1.87,2.12,2,3.88.75,23.4-17.07,44.78-36.14,60.34-60.95,6.23-9.95,10.93-20.58,12.49-32.34C433.92,153.64,433.81,153.62,425.54,153.63Zm-.27-24.24c2,0,3.93,0,5.89,0,1.66,0,2.39-.51,2.4-2.36,0-10.12-10.73-21.13-21-21.55-2.26-.09-3.36.36-3.23,2.9.16,3.31.11,6.65,0,10-.08,2,.38,3.06,2.53,3.41a6.34,6.34,0,0,1,5.41,5.41c.39,2.07,1.42,2.31,3.09,2.23S423.6,129.39,425.27,129.39Z"/><path class="cls-4" d="M208.68,76.78c-1.67,18-9.11,32.42-18.88,45.73C175,142.7,156.59,159.26,136.41,174c-2.91,2.12-4.13,1.47-5.92-1.23C124,163,124,163.1,133.35,155.93c19.56-15,37.39-31.69,50.21-53.1a64.75,64.75,0,0,0,9-26.39c.31-2.8,1.29-3.65,3.93-3.45a47.55,47.55,0,0,0,7.26,0C207.45,72.72,210,73.31,208.68,76.78Z"/><path class="cls-5" d="M200.61,49.18c-1.51,0-3,0-4.53,0-1-.05-2.8.36-2.85-.61-.31-5.63-7.24-5.66-8.38-9.91-.95-3.52-.15-7.5-.2-11.28,0-2,.78-2.45,2.79-2.25A23.6,23.6,0,0,1,208.49,45c.56,3.21.11,4.57-3.35,4.17A40.24,40.24,0,0,0,200.61,49.18Z"/><path class="cls-4" d="M313,322.07c8.92,0,8.78,0,7.38,9-2.82,18.13-12.09,33.09-23.26,47-14,17.43-30.76,32-48.77,45.18-2.1,1.53-3.48,1.84-5-.82-2-3.55-6.1-6.95-6-10.29.11-3.14,5.55-4.88,8.59-7.3,19.47-15.54,37.84-32.12,50.47-54,4.57-7.92,8-16.31,8.29-25.62.08-2.37.94-3.26,3.26-3.09C309.65,322.17,311.32,322.07,313,322.07Z"/><path class="cls-6" d="M313,298.24c-1.51,0-3-.05-4.52,0-2,.07-3.5-.23-3.84-2.71a5.69,5.69,0,0,0-4.71-5c-3.13-.49-3.43-2.15-3.29-4.66a58,58,0,0,0,0-7.69c-.31-4.18,1.58-4.84,5.22-4,9.68,2.32,15.94,8.1,18.57,17.71,1.53,5.59,1,6.25-4.75,6.26Z"/><path class="cls-7" d="M425.54,153.63c8.27,0,8.38,0,7.31,8.09-1.56,11.76-6.26,22.39-12.49,32.34C404.8,218.87,383.42,237.94,360,255c-1.76,1.28-2.75,1.12-3.88-.75-2.19-3.62-6.4-7.15-6.35-10.66,0-3.36,5.69-5.13,8.86-7.62,16.73-13.16,32.34-27.43,44.65-45,7.38-10.53,13.05-21.83,14-34.94.15-2.06.95-2.58,2.78-2.48S423.72,153.63,425.54,153.63Z"/><path class="cls-8" d="M425.27,129.39c-1.67,0-3.33-.06-5,0s-2.7-.16-3.09-2.23a6.34,6.34,0,0,0-5.41-5.41c-2.15-.35-2.61-1.45-2.53-3.41.15-3.32.2-6.66,0-10-.13-2.54,1-3,3.23-2.9,10.31.42,21.07,11.43,21,21.55,0,1.85-.74,2.4-2.4,2.36C429.2,129.35,427.23,129.39,425.27,129.39Z"/></g></g></svg>