<?xml version="1.0" encoding="utf-8"?>
<!-- Generator: Adobe Illustrator 24.0.1, SVG Export Plug-In . SVG Version: 6.00 Build 0)  -->
<svg version="1.1" id="Layer_1" xmlns="http://www.w3.org/2000/svg" xmlns:xlink="http://www.w3.org/1999/xlink" x="0px" y="0px"
	 viewBox="0 0 48.75 48.75" style="enable-background:new 0 0 48.75 48.75;" xml:space="preserve">
<style type="text/css">
	.st0{fill:#FEFEFE;}
</style>
<title>Asset 8</title>
<g id="Layer_2_1_">
	<g id="Layer_1-2">
		<path d="M5.53,0.05h42.55c0.27,0.48,0.06,1,0,1.44c-0.2,2.47-0.4,4.92-0.6,7.38c-0.21,2.3-0.41,4.6-0.62,6.9
			c-0.21,2.31-0.41,4.63-0.61,6.94l-0.72,8c-0.21,2.3-0.42,4.6-0.6,6.9c-0.16,1.87-0.36,3.74-0.49,5.62
			c-0.01,0.44-0.34,0.82-0.78,0.88l-13.57,3.81l-2.19,0.63c-0.71,0.21-1.48,0.21-2.19,0c-3.47-1-6.95-2-10.43-2.93l-5.3-1.48
			c-0.61-0.17-0.73-0.33-0.78-1c-0.27-3.17-0.57-6.33-0.84-9.5c-0.23-2.7-0.48-5.39-0.71-8.08c-0.17-2.25-0.41-4.51-0.61-6.81
			c-0.18-2-0.34-3.94-0.52-5.91c-0.21-2.33-0.41-4.66-0.63-7c-0.16-1.79-0.3-3.56-0.47-5.33C5.38,0.34,5.42,0.17,5.53,0.05z"/>
		<path class="st0" d="M26.83,9.05c4.32,0,8.64,0,13,0c0.39,0,0.48,0.07,0.44,0.49c-0.32,3.39-0.6,6.78-0.91,10.17
			s-0.61,6.71-0.91,10.06c-0.18,2.07-0.37,4.13-0.54,6.2c0.01,0.3-0.21,0.56-0.51,0.59c-3.42,0.93-6.84,1.87-10.27,2.83
			c-0.2,0.06-0.4,0.06-0.6,0l-10.38-2.93c-0.24-0.02-0.42-0.23-0.4-0.47c-0.23-2.63-0.47-5.26-0.72-7.89c0-0.29,0-0.38,0.35-0.38
			c1.55,0,3.1,0,4.65,0c0.31,0,0.4,0.09,0.42,0.39c0.09,1.25,0.23,2.49,0.32,3.74c-0.01,0.24,0.17,0.44,0.41,0.46l5.3,1.44
			c0.2,0.06,0.41,0.06,0.61,0c1.77-0.48,3.53-1,5.3-1.42c0.27-0.03,0.47-0.26,0.47-0.53c0.23-2.27,0.48-4.54,0.74-6.79
			c0-0.25-0.07-0.26-0.25-0.25h-1.66c-5.48,0-10.96,0.02-16.43,0.05c-0.4,0-0.53-0.08-0.57-0.5c-0.11-1.38-0.26-2.77-0.43-4.15
			c0-0.39,0.07-0.45,0.43-0.46l18.85-0.21c0.47,0,0.57-0.15,0.59-0.58c0.07-1.47,0.18-2.94,0.32-4.41c0-0.4,0-0.49-0.44-0.49
			c-6.06,0-12.13,0-18.19,0.07c-0.6,0-1.2,0-1.8,0c-0.23,0-0.34,0-0.36-0.3c-0.09-1.52-0.2-3-0.32-4.55c0-0.2,0.07-0.25,0.24-0.24
			s0.22,0,0.33,0L26.83,9.05z"/>
	</g>
</g>
</svg>
