<svg xmlns="http://www.w3.org/2000/svg" viewBox="0 0 52.91 48.65"><defs><style>.cls-1{fill:#fefefe;}</style></defs><title>Asset 3</title><g id="Layer_2" data-name="Layer 2"><g id="Layer_1-2" data-name="Layer 1"><g id="Layer_2-2" data-name="Layer 2"><g id="Layer_1-2-2" data-name="Layer 1-2"><path d="M0,.58C-.07.1.14,0,.67,0H52.88a13.6,13.6,0,0,1-.09,2.55c-.18,2-.39,4-.58,6s-.38,3.81-.58,5.72L51.14,20c-.19,1.92-.38,3.85-.58,5.77s-.37,3.74-.55,5.62-.38,3.84-.57,5.76S49,41,48.83,43c0,.38-.1.75-.1,1.13a.71.71,0,0,1-.66.75h0l-3.26.6-16.48,3a9.47,9.47,0,0,1-3.52,0L5.28,44.9c-1-.18-1-.19-1.08-1.09-.28-2.61-.53-5.23-.79-7.84l-.65-6.76-.69-6.8c-.2-2.27-.41-4.53-.64-6.76-.18-1.91-.32-3.81-.56-5.72S.5,6.09.3,4.17C.17,3,.18,1.78,0,.58Z"/><path class="cls-1" d="M28.68,17.25V8.56c0-.34.08-.46.48-.46H42.78c.39,0,.5.08.45.45-.13,1.11-.24,2.23-.31,3.35,0,.35-.26.27-.47.27h-9c-.29,0-.38.05-.38.33v9.44c0,.35.14.38.44.38h7.84c.43,0,.5.1.46.47-.28,2.63-.53,5.26-.79,7.89-.22,2.24-.45,4.48-.66,6.71,0,.36-.16.49-.56.56l-10.6,2c-.42.08-.57,0-.55-.41V36.36c0-.4.15-.5.52-.56,2.18-.4,4.42-.82,6.63-1.2.35-.06.45-.2.47-.52.22-2.33.46-4.66.69-7,.08-.68.09-.68-.62-.68H29.18c-.4,0-.51-.09-.51-.47C28.69,23,28.68,20.13,28.68,17.25Z"/><path class="cls-1" d="M19.88,35V8.61c0-.44.13-.55.6-.54h3.26c.47,0,.59.1.59.54V39.48c0,.43-.15.45-.52.38L13,37.86a.41.41,0,0,1-.41-.42h0q-.27-2.91-.57-5.82a3.44,3.44,0,0,0-.1-1c-.1-.34,0-.28.26-.28H16.1c.28,0,.28.14.3.33.1,1.12.22,2.24.3,3.36,0,.25.08.38.4.43C18,34.66,18.91,34.85,19.88,35Z"/></g></g></g></g></svg>