<?xml version="1.0" encoding="utf-8"?>
<!-- Generator: Adobe Illustrator 24.0.1, SVG Export Plug-In . SVG Version: 6.00 Build 0)  -->
<svg version="1.1" id="Layer_1" xmlns="http://www.w3.org/2000/svg" xmlns:xlink="http://www.w3.org/1999/xlink" x="0px" y="0px"
	 viewBox="0 0 48.75 48.75" style="enable-background:new 0 0 48.75 48.75;" xml:space="preserve">
<style type="text/css">
	.st0{fill:#FAFBF9;}
</style>
<title>Asset 4</title>
<g id="Layer_2_1_">
	<g id="Layer_1-2">
		<path d="M43.85,25.21c0,3.16,0,6.32,0,9.48c0.09,1.46-0.7,2.83-2,3.48c-5.33,3.09-10.67,6.2-16,9.33c-1.24,0.82-2.86,0.82-4.1,0
			c-1.7-1-3.42-2-5.12-3.05c-0.26-0.15-0.68-0.24-0.64-0.61s0.45-0.29,0.69-0.41c0.34-0.1,0.68-0.24,1-0.4
			c0.81-0.71,2.04-0.66,2.78,0.13c0.57,0.44,1.29,0.69,1.85,1.14c0.83,0.74,2.07,0.77,2.93,0.06c4.92-3,9.9-5.8,14.87-8.66
			c0.49-0.21,0.79-0.71,0.74-1.24c0-6.19,0-12.38,0-18.57c0.04-0.5-0.24-0.98-0.71-1.18c-5.23-3.02-10.44-6.06-15.61-9.11
			c-0.43-0.32-1.02-0.32-1.45,0c-5.33,3.08-10.67,6.14-16,9.18c-0.54,0.26-0.86,0.83-0.79,1.43c0,6,0,12,0,18
			c-0.06,0.6,0.28,1.17,0.83,1.41c1.25,0.67,2.47,1.41,3.7,2.11c0.43,0.26,0.89,0.46,1.38,0.59c1.08,0.4,2.28-0.15,2.69-1.23
			c0.1-0.28,0.15-0.59,0.12-0.89c0-2.06,0-4.11,0-6.16V17.81c0-1.09,0.24-1.36,1.31-1.35c2.39,0,2.11-0.38,2.11,2.09
			c0,5.85,0,11.69,0,17.53c0.02,0.76-0.06,1.52-0.26,2.25c-0.77,2.54-3.46,3.81-6.4,3c-1.32-0.42-2.58-1.01-3.75-1.76
			c-1-0.57-2-1.1-2.95-1.7c-1.13-0.65-1.81-1.86-1.78-3.16c0-6.35,0-12.68,0-19c-0.05-1.33,0.66-2.57,1.83-3.2
			c5.59-3.33,11.22-6.55,16.86-9.8c1.1-0.68,2.5-0.68,3.6,0c5.54,3.2,11.07,6.41,16.6,9.63c1.1,0.62,1.76,1.82,1.68,3.09
			C43.85,18.71,43.85,21.96,43.85,25.21z"/>
		<path d="M28.47,34.71c-1.75,0.05-3.48-0.29-5.08-1c-2.01-0.84-3.3-2.82-3.26-5c0-0.7,0.24-1,0.94-0.92c0.22,0.03,0.44,0.03,0.66,0
			c1.07-0.18,1.6,0.19,1.76,1.33c0.19,1.17,1.11,2.08,2.28,2.26c2.07,0.49,4.22,0.49,6.29,0c0.45-0.09,0.87-0.27,1.23-0.55
			c0.82-0.62,0.98-1.8,0.36-2.62c-0.22-0.29-0.52-0.51-0.86-0.63c-1.6-0.5-3.25-0.81-4.92-0.9c-1.45-0.11-2.87-0.4-4.24-0.88
			c-1.56-0.45-2.7-1.79-2.91-3.4c-0.36-1.82,0.37-3.68,1.87-4.77c1.2-0.83,2.6-1.32,4.05-1.42c2.14-0.29,4.31-0.08,6.35,0.61
			c2.13,0.71,3.62,2.65,3.74,4.89c0.07,0.59-0.15,0.83-0.72,0.8c-0.22-0.02-0.45-0.02-0.67,0c-1.05,0.2-1.84-0.03-2.05-1.31
			c-0.21-0.86-0.9-1.52-1.76-1.7c-1.92-0.56-3.96-0.56-5.88,0c-0.67,0.12-1.23,0.58-1.49,1.21c-0.38,0.72-0.1,1.61,0.62,1.98
			c0.16,0.08,0.33,0.14,0.51,0.16c1.5,0.4,3.02,0.67,4.56,0.83c1.44,0.16,2.86,0.45,4.25,0.86c1.74,0.57,3.06,1.56,3.3,3.49
			c0.42,2.05-0.48,4.15-2.26,5.25C33.22,34.48,31.09,34.71,28.47,34.71z"/>
		<path class="st0" d="M27.21,31.28h1.08v0.09H27.2L27.21,31.28z"/>
		<path class="st0" d="M29.66,31.28h1.06v0.09h-1.05L29.66,31.28z"/>
	</g>
</g>
</svg>
