<?xml version="1.0" encoding="utf-8"?>
<!-- Generator: Adobe Illustrator 24.0.1, SVG Export Plug-In . SVG Version: 6.00 Build 0)  -->
<svg version="1.1" id="Layer_1" xmlns="http://www.w3.org/2000/svg" xmlns:xlink="http://www.w3.org/1999/xlink" x="0px" y="0px"
	 viewBox="0 0 55.29 50.21" style="enable-background:new 0 0 55.29 50.21;" xml:space="preserve">
<style type="text/css">
	.st0{fill:#020202;}
</style>
<title>Asset 2</title>
<g id="Layer_2_1_">
	<g id="Layer_1-2">
		<path class="st0" d="M49.02,19.57c0.12-1.76-1.2-3.28-2.96-3.4c-1.76-0.12-3.28,1.2-3.4,2.96c-0.01,0.11-0.01,0.23-0.01,0.34
			c-0.12,1.76,1.21,3.28,2.97,3.39c0.06,0,0.12,0.01,0.18,0.01c1.72,0.06,3.17-1.29,3.22-3.01C49.02,19.76,49.02,19.66,49.02,19.57z
			 M26.35,6.34c0.01-1.82-1.43-3.31-3.25-3.36c-1.82,0.01-3.29,1.5-3.27,3.32c0.01,1.82,1.5,3.29,3.32,3.28
			C24.9,9.5,26.29,8.09,26.35,6.34z M17.22,38.51c-0.04-1.77-1.5-3.17-3.27-3.13s-3.17,1.5-3.13,3.27s1.5,3.17,3.27,3.13
			c0.04,0,0.09,0,0.13-0.01C15.92,41.65,17.24,40.22,17.22,38.51z"/>
		<path d="M41.16,31.45c2.08-0.95,4.13-1.72,6-2.77c2.32-1.3,2.74-2.59,2.13-5.16c-0.06-0.18-0.06-0.38,0-0.56
			c0.28-0.52,0.66-1,0.9-1.54c0.21-0.56,0.38-1.12,0.51-1.7c1.73,0.75,3.17,2.04,4.11,3.67c1,1.83,0.34,3.89-1.41,5.33
			c-2.93,2.39-6.47,3.41-10,4.37c-0.46,0.13-0.94,0.23-1.44,0.35c0.61,2.07,1.11,4.18,1.49,6.3c0.33,2.16,0.38,4.36,0.14,6.54
			c-0.5,3.8-3.17,4.7-6.65,3.26c-3.16-1.31-5.53-3.72-7.83-6.16c-0.44-0.47-0.86-0.95-1.4-1.53c-1.6,1.6-3.07,3.24-4.73,4.66
			c-1.35,1.17-2.82,2.17-4.4,3c-3.32,1.7-6,0.33-6.63-3.29c-0.19-1-0.21-2.11-0.3-3.11l3.88,0.34c1.51,1.9,2.39,2.13,4.87,1
			c2.18-1.11,4.13-2.62,5.73-4.47c-1.2-1.73-2.32-3.48-3.61-5.1c-0.31-0.39-1.16-0.46-1.78-0.51c-4.01-0.21-7.97-0.97-11.78-2.25
			c-2.18-0.73-4.26-1.72-6.2-2.94c-3.69-2.48-3.66-6,0.13-8.27c2.48-1.34,5.05-2.47,7.71-3.4c0.98-0.33,1.98-0.59,3-0.78
			c-0.58-1.97-1.05-3.97-1.4-6c-0.36-2.3-0.42-4.63-0.18-6.94c0.47-3.48,2.78-4.59,6.09-3.27c0.84,0.38,1.66,0.82,2.45,1.3
			c-0.68,1-1.29,1.9-1.94,2.78C18.44,4.83,18.18,5,17.9,5.08c-1.53,0.27-2.67,1.54-2.77,3.09c-0.49,2.76,0.14,5.38,0.82,8.12
			c2.05-0.24,4.06-0.43,6-0.76c0.42-0.06,0.83-0.59,1.11-1c2.66-4.14,5.91-7.87,9.65-11.07c1.78-1.48,3.59-2.89,5.97-3.3
			c2.53-0.43,4.12,0.64,4.73,3.13c0.67,3.34,0.43,6.79-0.7,10c-1.08,3.63-2.5,7.16-3.85,10.7c-0.33,0.68-0.33,1.46,0,2.14
			C39.64,27.8,40.31,29.47,41.16,31.45z M27.55,32.78c1.17,0.07,2.35,0.07,3.52,0c0.55-0.08,1.05-0.39,1.38-0.84
			c1.18-1.91,2.31-3.85,3.31-5.85c0.27-0.64,0.27-1.36,0-2c-1-2-2.18-4-3.37-5.94c-0.27-0.42-0.72-0.69-1.21-0.75
			c-2.35-0.06-4.7-0.05-7,0.06c-0.52,0.1-0.98,0.41-1.27,0.86c-1.12,1.84-2.12,3.75-3.22,5.61c-0.49,0.69-0.49,1.63,0,2.32
			c0.63,1,1.09,2.05,1.69,3C24.02,33.61,22.43,32.63,27.55,32.78z M40.55,39.21c-0.17-1-0.48-2.95-0.89-4.89
			c-0.16-0.34-0.49-0.57-0.87-0.58c-1.73,0.13-3.45,0.31-5.17,0.57c-0.44,0.1-0.84,0.35-1.12,0.71c-1,1.37-2.05,2.77-3,4.21
			c-0.2,0.37-0.2,0.81,0,1.18c1.31,1.36,2.75,2.58,4.31,3.64c4.21,2.46,6.78,0.93,6.79-4.84H40.55z M29.02,10.16
			c1.21,1.71,2.3,3.33,3.49,4.89c0.34,0.38,0.81,0.63,1.31,0.7c1.68,0.27,3.37,0.46,5.05,0.62c0.26,0,0.75-0.19,0.8-0.38
			c0.81-2.58,1.05-5.31,0.71-8c-0.36-2.6-2.36-3.61-4.83-2.66S31.02,8.21,29.02,10.16z M5.65,25.31c-0.01,1.19,0.68,2.28,1.76,2.79
			c2.09,1.11,4.24,2.09,6.44,2.95c0.21,0.09,0.84-0.31,1-0.62c0.72-1.51,1.39-3.05,2-4.61c0.18-0.51,0.18-1.07,0-1.58
			c-0.58-1.57-1.3-3.08-1.93-4.63c-0.23-0.58-0.53-0.87-1.16-0.66c-2.44,0.63-4.74,1.75-6.74,3.28C6.08,22.97,5.57,24.12,5.65,25.31
			z M30.7,34.67h-6l3,3.85L30.7,34.67z M30.79,15.5l-3.1-3.87l-3,3.87H30.79z M34.3,32.5l4.8-0.76l-1.79-4.66L34.3,32.5z
			 M16.42,18.25l1.82,4.73l3-5.36L16.42,18.25z M39.02,18.36l-4.79-0.75l3,5.38L39.02,18.36z M21.2,32.48l-3-5.4l-1.77,4.65
			L21.2,32.48z"/>
		<path d="M49.02,19.57c0.1,1.72-1.21,3.2-2.93,3.3c-0.1,0.01-0.19,0.01-0.29,0c-1.76-0.02-3.18-1.46-3.16-3.22
			c0-0.06,0-0.12,0.01-0.18c-0.07-1.76,1.31-3.24,3.07-3.31s3.24,1.31,3.31,3.07C49.03,19.34,49.02,19.45,49.02,19.57z"/>
		<path d="M26.35,6.34c-0.04,1.76-1.44,3.19-3.2,3.26c-1.83,0.01-3.32-1.46-3.33-3.29s1.46-3.32,3.28-3.33
			C24.91,3.03,26.36,4.52,26.35,6.34z"/>
		<path d="M17.22,38.51c-0.05,1.77-1.52,3.16-3.29,3.11c-1.64-0.04-2.98-1.32-3.1-2.96c-0.13-1.76,1.19-3.3,2.95-3.43
			c1.76-0.13,3.3,1.19,3.43,2.95C17.22,38.29,17.22,38.4,17.22,38.51z"/>
		<path d="M33.16,25.13c-0.01,2.99-2.38,5.43-5.37,5.54c-3.11,0.14-5.74-2.26-5.88-5.36c-0.14-3.11,2.26-5.74,5.36-5.88
			c3.11-0.14,5.74,2.26,5.88,5.36C33.16,24.9,33.16,25.01,33.16,25.13z"/>
	</g>
</g>
</svg>
